<svg width="76" height="76" viewBox="0 0 76 76" fill="none" xmlns="http://www.w3.org/2000/svg">
<defs>
<radialGradient id="paint0_radial_445_5735" cx="0" cy="0" r="1" gradientUnits="userSpaceOnUse" gradientTransform="translate(37.7114 38.0873) rotate(90) scale(37.6743)">
<stop offset="0.530392" stop-color="#949FBB" stop-opacity="0.25"/>
<stop offset="0.892556" stop-color="#E6E8EE"/>
</radialGradient>
<linearGradient id="paint1_linear_445_5735" x1="0.0371094" y1="0.41301" x2="75.3857" y2="75.7616" gradientUnits="userSpaceOnUse">
<stop stop-color="#3A9FE9"/>
<stop offset="1" stop-color="#547EEC"/>
</linearGradient>
</defs>
<circle cx="37.7114" cy="38.0873" r="37.6743" fill="url(#paint0_radial_445_5735)"/>
<path d="M74.6646 45.4232C72.9669 53.9749 68.3558 61.673 61.6173 67.2053C54.8789 72.7376 46.4302 75.7615 37.7117 75.7616C28.9932 75.7616 20.5445 72.7379 13.8059 67.2057C7.06739 61.6735 2.45616 53.9754 0.758354 45.4238L37.7114 38.0873L74.6646 45.4232Z" fill="url(#paint1_linear_445_5735)"/>
<circle cx="37.7116" cy="38.0873" r="30.6418" fill="#F2F4F7"/>
<path d="M25.9445 44V34.976L26.3445 35.072L22.6645 39.568L22.6005 39.376H29.5605V40.96H21.5285L20.7925 39.52L26.2805 32.8H27.6085V44H25.9445ZM35.0824 44.16C34.229 44.16 33.493 43.9253 32.8744 43.456C32.2664 42.9867 31.797 42.3253 31.4664 41.472C31.1357 40.608 30.9704 39.584 30.9704 38.4C30.9704 37.216 31.1357 36.1973 31.4664 35.344C31.797 34.48 32.2664 33.8133 32.8744 33.344C33.493 32.8747 34.229 32.64 35.0824 32.64C35.9357 32.64 36.6717 32.8747 37.2904 33.344C37.909 33.8133 38.3837 34.48 38.7144 35.344C39.045 36.1973 39.2104 37.216 39.2104 38.4C39.2104 39.584 39.045 40.608 38.7144 41.472C38.3837 42.3253 37.909 42.9867 37.2904 43.456C36.6717 43.9253 35.9357 44.16 35.0824 44.16ZM35.0824 42.592C35.861 42.592 36.4637 42.2293 36.8904 41.504C37.317 40.768 37.5304 39.7333 37.5304 38.4C37.5304 37.0667 37.317 36.0373 36.8904 35.312C36.4637 34.576 35.861 34.208 35.0824 34.208C34.3037 34.208 33.701 34.576 33.2744 35.312C32.8477 36.0373 32.6344 37.0667 32.6344 38.4C32.6344 39.7333 32.8477 40.768 33.2744 41.504C33.701 42.2293 34.3037 42.592 35.0824 42.592ZM41.0731 44V35.6H42.7371V37.392L42.4331 37.584C42.5185 37.3067 42.6518 37.04 42.8331 36.784C43.0251 36.528 43.2545 36.304 43.5211 36.112C43.7985 35.9093 44.0918 35.7493 44.4011 35.632C44.7211 35.5147 45.0465 35.456 45.3771 35.456C45.8571 35.456 46.2785 35.536 46.6411 35.696C47.0038 35.856 47.3025 36.096 47.5371 36.416C47.7718 36.736 47.9425 37.136 48.0491 37.616L47.7931 37.552L47.9051 37.28C48.0225 37.0347 48.1825 36.8053 48.3851 36.592C48.5985 36.368 48.8385 36.1707 49.1051 36C49.3718 35.8293 49.6545 35.696 49.9531 35.6C50.2518 35.504 50.5451 35.456 50.8331 35.456C51.4625 35.456 51.9798 35.584 52.3851 35.84C52.8011 36.096 53.1105 36.4853 53.3131 37.008C53.5265 37.5307 53.6331 38.1813 53.6331 38.96V44H51.9691V39.056C51.9691 38.576 51.9051 38.1867 51.7771 37.888C51.6598 37.5787 51.4785 37.3493 51.2331 37.2C50.9878 37.0507 50.6731 36.976 50.2891 36.976C49.9905 36.976 49.7078 37.0293 49.4411 37.136C49.1851 37.232 48.9611 37.3707 48.7691 37.552C48.5771 37.7333 48.4278 37.9467 48.3211 38.192C48.2145 38.4267 48.1611 38.688 48.1611 38.976V44H46.4971V39.024C46.4971 38.5867 46.4331 38.2187 46.3051 37.92C46.1771 37.6107 45.9905 37.376 45.7451 37.216C45.4998 37.056 45.2011 36.976 44.8491 36.976C44.5505 36.976 44.2731 37.0293 44.0171 37.136C43.7611 37.232 43.5371 37.3707 43.3451 37.552C43.1531 37.7227 43.0038 37.9307 42.8971 38.176C42.7905 38.4107 42.7371 38.6667 42.7371 38.944V44H41.0731Z" fill="#949FBB"/>
</svg>
