<svg width="184" height="185" viewBox="0 0 184 185" fill="none" xmlns="http://www.w3.org/2000/svg">
<defs>
<filter id="filter0_dd_110_5264" x="0.411987" y="0" width="183" height="185" filterUnits="userSpaceOnUse" color-interpolation-filters="sRGB">
<feFlood flood-opacity="0" result="BackgroundImageFix"/>
<feColorMatrix in="SourceAlpha" type="matrix" values="0 0 0 0 0 0 0 0 0 0 0 0 0 0 0 0 0 0 127 0" result="hardAlpha"/>
<feMorphology radius="1" operator="erode" in="SourceAlpha" result="effect1_dropShadow_110_5264"/>
<feOffset dx="1" dy="2"/>
<feGaussianBlur stdDeviation="2"/>
<feComposite in2="hardAlpha" operator="out"/>
<feColorMatrix type="matrix" values="0 0 0 0 0.419608 0 0 0 0 0.470588 0 0 0 0 0.592157 0 0 0 0.38 0"/>
<feBlend mode="normal" in2="BackgroundImageFix" result="effect1_dropShadow_110_5264"/>
<feColorMatrix in="SourceAlpha" type="matrix" values="0 0 0 0 0 0 0 0 0 0 0 0 0 0 0 0 0 0 127 0" result="hardAlpha"/>
<feMorphology radius="1" operator="erode" in="SourceAlpha" result="effect2_dropShadow_110_5264"/>
<feOffset dx="-1" dy="-2"/>
<feGaussianBlur stdDeviation="2"/>
<feComposite in2="hardAlpha" operator="out"/>
<feColorMatrix type="matrix" values="0 0 0 0 1 0 0 0 0 1 0 0 0 0 1 0 0 0 1 0"/>
<feBlend mode="normal" in2="effect1_dropShadow_110_5264" result="effect2_dropShadow_110_5264"/>
<feBlend mode="normal" in="SourceGraphic" in2="effect2_dropShadow_110_5264" result="shape"/>
</filter>
<linearGradient id="paint0_linear_110_5264" x1="-71.2947" y1="-166.568" x2="185.068" y2="265.03" gradientUnits="userSpaceOnUse">
<stop stop-color="#F2F4F7"/>
<stop offset="1" stop-color="#F2F4F7"/>
</linearGradient>
<radialGradient id="paint1_radial_110_5264" cx="0" cy="0" r="1" gradientUnits="userSpaceOnUse" gradientTransform="translate(91.3526 92.365) rotate(-135) scale(75.1377)">
<stop offset="0.620721" stop-color="#6B7897" stop-opacity="0.34"/>
<stop offset="1" stop-color="#6B7897" stop-opacity="0.63"/>
</radialGradient>
</defs>
<g filter="url(#filter0_dd_110_5264)">
<circle cx="91.912" cy="92.5" r="87.5" fill="url(#paint0_linear_110_5264)"/>
</g>
<circle cx="91.9121" cy="92.4999" r="71.2709" fill="url(#paint1_radial_110_5264)" style="mix-blend-mode:multiply"/>
<path fill-rule="evenodd" clip-rule="evenodd" d="M123.251 79.0062C123.248 78.9977 123.245 78.9893 123.242 78.9808C123.242 78.9794 123.241 78.9785 123.241 78.9779C123.241 78.9775 123.241 78.9773 123.241 78.9773C123.241 78.9773 123.241 78.9791 123.243 78.9828L123.246 78.993L123.249 79L123.25 79.0041L123.251 79.0062ZM129.016 78.9808C129.013 78.9871 129.008 79.0017 128.999 79.0235C128.977 79.0771 128.937 79.1709 128.877 79.2915C128.753 79.5386 128.563 79.8622 128.303 80.1746C127.799 80.7791 127.139 81.2425 126.129 81.2425C125.119 81.2425 124.459 80.7791 123.955 80.1746C123.695 79.8622 123.505 79.5386 123.381 79.2915C123.321 79.1709 123.28 79.0771 123.259 79.0235C123.25 79.0017 123.244 78.9871 123.242 78.9808C122.753 77.5645 121.214 76.8025 119.789 77.2774C118.355 77.7555 117.58 79.3055 118.058 80.7395L120.655 79.874C118.058 80.7395 118.059 80.7407 118.059 80.7419L118.06 80.7443L118.062 80.7495L118.066 80.761L118.075 80.7887L118.102 80.8623C118.122 80.9192 118.15 80.9916 118.185 81.0773C118.254 81.2483 118.353 81.4752 118.485 81.7395C118.746 82.2621 119.155 82.965 119.75 83.679C120.957 85.1272 123.033 86.7166 126.129 86.7166C129.225 86.7166 131.301 85.1272 132.508 83.679C133.103 82.965 133.512 82.2621 133.773 81.7395C133.905 81.4752 134.004 81.2483 134.073 81.0773C134.108 80.9916 134.135 80.9192 134.156 80.8623L134.183 80.7887L134.192 80.761L134.196 80.7495L134.198 80.7443L134.199 80.7419C134.199 80.7407 134.2 80.7395 131.603 79.874L134.2 80.7395C134.678 79.3055 133.903 77.7555 132.468 77.2774C131.044 76.8025 129.504 77.5645 129.016 78.9808Z" fill="white"/>
<path fill-rule="evenodd" clip-rule="evenodd" d="M57.5925 79.1027C57.5895 79.0926 57.5865 79.0826 57.5834 79.0726C57.1457 77.642 55.6374 76.8257 54.1975 77.2472C52.7468 77.6718 51.9149 79.1921 52.3396 80.6429L54.9664 79.874C52.3396 80.6429 52.3399 80.6441 52.3403 80.6454L52.3411 80.648L52.3427 80.6535L52.3464 80.6658L52.3553 80.695L52.3797 80.7717C52.3991 80.8307 52.4246 80.9054 52.4569 80.9935C52.5214 81.1692 52.6141 81.4015 52.7401 81.6718C52.9893 82.2062 53.3848 82.9242 53.9776 83.6533C55.1958 85.1517 57.2866 86.7163 60.4402 86.7166C63.5944 86.7168 65.6854 85.1521 66.9037 83.6533C67.4965 82.9241 67.892 82.206 68.141 81.6715C68.267 81.4011 68.3596 81.1687 68.4241 80.993C68.4564 80.9048 68.482 80.8302 68.5013 80.7712L68.5257 80.6944L68.5346 80.6652L68.5383 80.653L68.5399 80.6474L68.5407 80.6448C68.5411 80.6436 68.5414 80.6423 65.9145 79.874L68.5414 80.6423C68.9658 79.1915 68.1336 77.6714 66.6828 77.247C65.2428 76.8259 63.7346 77.6424 63.2972 79.0731C63.2952 79.079 63.2912 79.0907 63.2849 79.1079C63.267 79.1566 63.2325 79.245 63.1791 79.3596C63.0695 79.5949 62.8977 79.9032 62.656 80.2004C62.2057 80.7545 61.5596 81.2426 60.4406 81.2425C59.3218 81.2424 58.6756 80.7543 58.2249 80.2C57.9832 79.9027 57.8113 79.5944 57.7016 79.3591C57.6482 79.2445 57.6137 79.1561 57.5958 79.1073C57.5895 79.0902 57.5854 79.0784 57.5834 79.0726C57.5826 79.0702 57.5822 79.0688 57.5821 79.0685C57.5819 79.068 57.5825 79.0699 57.5839 79.0742C57.5841 79.0749 57.5843 79.0757 57.5846 79.0766L57.5882 79.0882L57.5905 79.096L57.5918 79.1004L57.5925 79.1027Z" fill="white"/>
<path fill-rule="evenodd" clip-rule="evenodd" d="M82.2872 87.5649C82.0012 86.087 80.5743 85.1164 79.0933 85.3955C77.6078 85.6753 76.6305 87.1064 76.9104 88.5919L79.5313 88.0981C76.9104 88.5919 76.9106 88.5933 76.9109 88.5947L76.9115 88.5978L76.9128 88.6048L76.9161 88.6217L76.9254 88.6676C76.9327 88.7034 76.9426 88.7498 76.9551 88.8059C76.9802 88.918 77.0162 89.0695 77.0652 89.2548C77.163 89.6248 77.3134 90.1335 77.5331 90.735C77.9699 91.9305 78.6965 93.5365 79.8622 95.1573C82.2506 98.4781 86.4431 101.77 93.2852 101.77C100.127 101.77 104.32 98.4781 106.708 95.1573C107.874 93.5365 108.6 91.9305 109.037 90.735C109.257 90.1335 109.407 89.6248 109.505 89.2548C109.554 89.0695 109.59 88.918 109.615 88.8059C109.628 88.7498 109.638 88.7035 109.645 88.6676L109.654 88.6217L109.658 88.6048L109.659 88.5978L109.659 88.5947C109.66 88.5933 109.66 88.5919 107.039 88.0981L109.66 88.5919C109.94 87.1064 108.963 85.6753 107.477 85.3955C105.996 85.1164 104.569 86.087 104.283 87.5649C104.282 87.5683 104.282 87.5718 104.281 87.5753L104.283 87.5649L104.273 87.6104C104.263 87.6586 104.243 87.7423 104.213 87.8564C104.152 88.0851 104.051 88.4317 103.896 88.8566C103.582 89.7138 103.067 90.8449 102.264 91.9611C100.715 94.1143 98.0655 96.2962 93.2852 96.2962C88.5048 96.2962 85.8548 94.1143 84.3062 91.9611C83.5035 90.8449 82.988 89.7138 82.6748 88.8566C82.5196 88.4318 82.418 88.0851 82.3576 87.8564C82.3275 87.7423 82.3078 87.6586 82.297 87.6104" fill="white"/>
</svg>
