<svg width="184" height="185" viewBox="0 0 184 185" fill="none" xmlns="http://www.w3.org/2000/svg">
<defs>
<filter id="filter0_dd_110_5293" x="0.706055" y="0" width="183" height="185" filterUnits="userSpaceOnUse" color-interpolation-filters="sRGB">
<feFlood flood-opacity="0" result="BackgroundImageFix"/>
<feColorMatrix in="SourceAlpha" type="matrix" values="0 0 0 0 0 0 0 0 0 0 0 0 0 0 0 0 0 0 127 0" result="hardAlpha"/>
<feMorphology radius="1" operator="erode" in="SourceAlpha" result="effect1_dropShadow_110_5293"/>
<feOffset dx="1" dy="2"/>
<feGaussianBlur stdDeviation="2"/>
<feComposite in2="hardAlpha" operator="out"/>
<feColorMatrix type="matrix" values="0 0 0 0 0.419608 0 0 0 0 0.470588 0 0 0 0 0.592157 0 0 0 0.38 0"/>
<feBlend mode="normal" in2="BackgroundImageFix" result="effect1_dropShadow_110_5293"/>
<feColorMatrix in="SourceAlpha" type="matrix" values="0 0 0 0 0 0 0 0 0 0 0 0 0 0 0 0 0 0 127 0" result="hardAlpha"/>
<feMorphology radius="1" operator="erode" in="SourceAlpha" result="effect2_dropShadow_110_5293"/>
<feOffset dx="-1" dy="-2"/>
<feGaussianBlur stdDeviation="2"/>
<feComposite in2="hardAlpha" operator="out"/>
<feColorMatrix type="matrix" values="0 0 0 0 1 0 0 0 0 1 0 0 0 0 1 0 0 0 1 0"/>
<feBlend mode="normal" in2="effect1_dropShadow_110_5293" result="effect2_dropShadow_110_5293"/>
<feBlend mode="normal" in="SourceGraphic" in2="effect2_dropShadow_110_5293" result="shape"/>
</filter>
<linearGradient id="paint0_linear_110_5293" x1="-71.0006" y1="-166.568" x2="185.362" y2="265.03" gradientUnits="userSpaceOnUse">
<stop stop-color="#F2F4F7"/>
<stop offset="1" stop-color="#F2F4F7"/>
</linearGradient>
<radialGradient id="paint1_radial_110_5293" cx="0" cy="0" r="1" gradientUnits="userSpaceOnUse" gradientTransform="translate(91.6466 92.365) rotate(-135) scale(75.1377)">
<stop offset="0.620721" stop-color="#6B7897" stop-opacity="0.34"/>
<stop offset="1" stop-color="#6B7897" stop-opacity="0.63"/>
</radialGradient>
<radialGradient id="paint2_radial_110_5293" cx="0" cy="0" r="1" gradientUnits="userSpaceOnUse" gradientTransform="translate(93.9825 89.4402) rotate(90) scale(85.5015 89.2584)">
<stop offset="0.51891" stop-color="#3A9FE9"/>
<stop offset="1" stop-color="#547EEC"/>
</radialGradient>
</defs>
<g filter="url(#filter0_dd_110_5293)">
<circle cx="92.2061" cy="92.5" r="87.5" fill="url(#paint0_linear_110_5293)"/>
</g>
<circle cx="92.2061" cy="92.4999" r="71.2709" fill="url(#paint1_radial_110_5293)" style="mix-blend-mode:multiply"/>
<path fill-rule="evenodd" clip-rule="evenodd" d="M82.5808 87.5649C82.2948 86.087 80.8679 85.1164 79.3869 85.3955C77.9014 85.6753 76.9241 87.1064 77.2039 88.5919L79.8249 88.0981C77.2039 88.5919 77.2042 88.5933 77.2045 88.5947L77.2051 88.5978L77.2064 88.6048L77.2097 88.6217L77.2189 88.6676C77.2263 88.7035 77.2361 88.7498 77.2487 88.8059C77.2738 88.918 77.3098 89.0695 77.3588 89.2548C77.4565 89.6248 77.6069 90.1335 77.8267 90.735C78.2635 91.9305 78.9901 93.5365 80.1558 95.1573C82.5441 98.4781 86.7367 101.77 93.5787 101.77C100.421 101.77 104.613 98.4781 107.002 95.1573C108.167 93.5365 108.894 91.9305 109.331 90.735C109.551 90.1335 109.701 89.6248 109.799 89.2548C109.848 89.0695 109.884 88.918 109.909 88.8059C109.921 88.7498 109.931 88.7035 109.939 88.6676L109.948 88.6217L109.951 88.6048L109.952 88.5978L109.953 88.5947C109.953 88.5933 109.954 88.5919 107.333 88.0981L109.954 88.5919C110.233 87.1064 109.256 85.6753 107.771 85.3955C106.29 85.1164 104.863 86.087 104.577 87.5649C104.576 87.5683 104.575 87.5718 104.575 87.5753L104.577 87.5649L104.567 87.6104C104.556 87.6586 104.536 87.7423 104.506 87.8564C104.446 88.0851 104.344 88.4317 104.189 88.8566C103.876 89.7138 103.36 90.8449 102.558 91.9611C101.009 94.1143 98.3591 96.2962 93.5787 96.2962C88.7984 96.2962 86.1484 94.1143 84.5998 91.9611C83.7971 90.8449 83.2815 89.7138 82.9684 88.8566C82.8132 88.4318 82.7116 88.0851 82.6512 87.8564C82.621 87.7423 82.6014 87.6586 82.5906 87.6104" fill="white"/>
<path fill-rule="evenodd" clip-rule="evenodd" d="M129.301 84.8473C129.304 84.8558 129.307 84.8642 129.31 84.8727C129.31 84.8741 129.311 84.8751 129.311 84.8756C129.311 84.876 129.311 84.8762 129.311 84.8762C129.311 84.8762 129.31 84.8744 129.309 84.8707L129.306 84.8605L129.303 84.8535L129.302 84.8494L129.301 84.8473ZM123.536 84.8727C123.538 84.8664 123.544 84.8518 123.553 84.83C123.574 84.7765 123.615 84.6826 123.675 84.5621C123.799 84.3149 123.989 83.9913 124.249 83.6789C124.753 83.0745 125.413 82.611 126.423 82.611C127.433 82.611 128.093 83.0745 128.597 83.6789C128.857 83.9913 129.047 84.3149 129.171 84.5621C129.231 84.6826 129.271 84.7765 129.293 84.83C129.302 84.8518 129.307 84.8664 129.31 84.8727C129.798 86.289 131.338 87.051 132.763 86.5761C134.197 86.0981 134.972 84.548 134.494 83.114L131.897 83.9795C134.494 83.114 134.493 83.1128 134.493 83.1117L134.492 83.1092L134.49 83.1041L134.486 83.0925L134.477 83.0648L134.45 82.9912C134.43 82.9343 134.402 82.8619 134.367 82.7762C134.298 82.6052 134.199 82.3784 134.067 82.114C133.806 81.5914 133.397 80.8886 132.802 80.1746C131.595 78.7263 129.519 77.137 126.423 77.137C123.327 77.137 121.251 78.7263 120.044 80.1746C119.449 80.8886 119.04 81.5914 118.779 82.114C118.647 82.3784 118.548 82.6052 118.479 82.7762C118.444 82.8619 118.416 82.9343 118.396 82.9912L118.369 83.0648L118.36 83.0925L118.356 83.1041L118.354 83.1092L118.353 83.1117C118.353 83.1128 118.352 83.114 120.949 83.9795L118.352 83.114C117.874 84.548 118.649 86.0981 120.083 86.5761C121.508 87.051 123.047 86.289 123.536 84.8727Z" fill="white"/>
<path fill-rule="evenodd" clip-rule="evenodd" d="M63.5825 84.7508C63.5854 84.7609 63.5884 84.7709 63.5915 84.7809C64.0292 86.2115 65.5376 87.0278 66.9774 86.6063C68.4282 86.1817 69.26 84.6614 68.8354 83.2106L66.2086 83.9795C68.8354 83.2106 68.835 83.2094 68.8346 83.2081L68.8339 83.2055L68.8322 83.2L68.8286 83.1877L68.8196 83.1585L68.7952 83.0818C68.7759 83.0228 68.7503 82.9482 68.718 82.86C68.6535 82.6843 68.5608 82.452 68.4348 82.1817C68.1857 81.6473 67.7901 80.9293 67.1974 80.2002C65.9791 78.7018 63.8884 77.1372 60.7347 77.137C57.5805 77.1368 55.4895 78.7014 54.2712 80.2002C53.6785 80.9294 53.283 81.6475 53.0339 82.182C52.908 82.4524 52.8153 82.6848 52.7508 82.8605C52.7185 82.9487 52.693 83.0234 52.6737 83.0823L52.6492 83.1591L52.6403 83.1883L52.6366 83.2006L52.635 83.2061L52.6342 83.2087C52.6339 83.21 52.6335 83.2112 55.2605 83.9795L52.6335 83.2112C52.2092 84.662 53.0413 86.1822 54.4922 86.6065C55.9321 87.0276 57.4403 86.2111 57.8777 84.7804C57.8797 84.7746 57.8837 84.7628 57.89 84.7457C57.9079 84.6969 57.9424 84.6085 57.9958 84.4939C58.1055 84.2586 58.2773 83.9503 58.5189 83.6531C58.9692 83.099 59.6153 82.6109 60.7343 82.611C61.8531 82.6111 62.4994 83.0992 62.95 83.6535C63.1917 83.9508 63.3636 84.2591 63.4733 84.4945C63.5267 84.609 63.5613 84.6974 63.5792 84.7462C63.5855 84.7633 63.5895 84.7751 63.5915 84.7809C63.5923 84.7833 63.5927 84.7847 63.5929 84.785C63.593 84.7855 63.5924 84.7836 63.591 84.7793C63.5908 84.7786 63.5906 84.7778 63.5903 84.7769L63.5868 84.7653L63.5844 84.7575L63.5831 84.7531L63.5825 84.7508Z" fill="white"/>
<path fill-rule="evenodd" clip-rule="evenodd" d="M161.998 107.01C155.297 139.414 126.596 163.771 92.2061 163.771C54.896 163.771 24.282 135.101 21.1926 98.5901C24.7473 100.955 27.5624 103.643 30.3761 106.33C36.7181 112.385 43.0533 118.434 57.8363 120.768C75.5631 123.567 88.6569 117.651 101.763 111.728C115.796 105.387 129.843 99.0394 149.607 103.38C153.829 104.308 157.984 105.531 161.998 107.01Z" fill="url(#paint2_radial_110_5293)"/>
</svg>
