<svg width="86" height="86" viewBox="0 0 86 86" fill="none" xmlns="http://www.w3.org/2000/svg">
<defs>
<radialGradient id="paint0_radial_466_7026" cx="0" cy="0" r="1" gradientUnits="userSpaceOnUse" gradientTransform="translate(42.7392 43.3306) rotate(90) scale(42.6423)">
<stop offset="0.530392" stop-color="#949FBB" stop-opacity="0.25"/>
<stop offset="0.892556" stop-color="#E6E8EE"/>
</radialGradient>
<linearGradient id="paint1_linear_466_7026" x1="0.0969238" y1="0.688309" x2="85.3816" y2="85.9729" gradientUnits="userSpaceOnUse">
<stop stop-color="#ED7474"/>
<stop offset="1" stop-color="#D83496"/>
</linearGradient>
</defs>
<circle cx="42.5" cy="43.5" r="33.2116" fill="#D6DCEC"/>
<circle cx="42.7392" cy="43.3306" r="42.6423" fill="url(#paint0_radial_466_7026)"/>
<circle cx="42.7392" cy="43.3306" r="42.6423" fill="url(#paint1_linear_466_7026)"/>
<ellipse cx="42.7393" cy="43.3306" rx="34.6824" ry="34.6824" fill="#F2F4F7"/>
<path fill-rule="evenodd" clip-rule="evenodd" d="M58.7707 36.4458C58.7691 36.4411 58.7675 36.4364 58.7659 36.4317C58.7656 36.431 58.7654 36.4304 58.7653 36.4301C58.7652 36.4299 58.7652 36.4297 58.7652 36.4297C58.7652 36.4297 58.7656 36.4308 58.7663 36.4328L58.7682 36.4384L58.7695 36.4424L58.7703 36.4446L58.7707 36.4458ZM61.9643 36.4317C61.963 36.4352 61.9599 36.4433 61.955 36.4554C61.943 36.485 61.9207 36.537 61.8873 36.6038C61.8189 36.7407 61.7135 36.92 61.5694 37.093C61.2903 37.4278 60.9244 37.6846 60.3651 37.6846C59.8058 37.6846 59.4399 37.4278 59.1608 37.093C59.0166 36.92 58.9113 36.7407 58.8428 36.6038C58.8095 36.537 58.7872 36.485 58.7752 36.4554C58.7703 36.4433 58.7672 36.4352 58.7659 36.4317C58.4952 35.6471 57.6426 35.225 56.8533 35.4881C56.0589 35.7529 55.6296 36.6116 55.8944 37.4059L57.3327 36.9265C55.8944 37.4059 55.8946 37.4066 55.8948 37.4072L55.8953 37.4086L55.8962 37.4114L55.8984 37.4178L55.9037 37.4332L55.9183 37.474C55.9299 37.5055 55.9451 37.5456 55.9644 37.5931C56.0027 37.6878 56.0574 37.8134 56.1306 37.9599C56.2754 38.2494 56.5017 38.6387 56.8313 39.0342C57.4999 39.8365 58.6502 40.7169 60.3651 40.7169C62.08 40.7169 63.2303 39.8365 63.8989 39.0342C64.2285 38.6387 64.4548 38.2494 64.5995 37.9599C64.6728 37.8134 64.7275 37.6878 64.7658 37.5931C64.785 37.5456 64.8003 37.5055 64.8119 37.474L64.8265 37.4332L64.8318 37.4178L64.834 37.4114L64.8349 37.4086L64.8354 37.4072C64.8356 37.4066 64.8358 37.4059 63.3974 36.9265L64.8358 37.4059C65.1006 36.6116 64.6713 35.7529 63.8769 35.4881C63.0876 35.225 62.2349 35.6471 61.9643 36.4317Z" fill="#949FBB"/>
<path fill-rule="evenodd" clip-rule="evenodd" d="M22.3993 36.4992C22.3976 36.4937 22.396 36.4881 22.3943 36.4825C22.1518 35.6901 21.3162 35.2379 20.5186 35.4714C19.715 35.7066 19.2542 36.5488 19.4894 37.3524L20.9445 36.9265C19.4894 37.3524 19.4896 37.3531 19.4898 37.3538L19.4903 37.3552L19.4912 37.3583L19.4932 37.3651L19.4981 37.3813L19.5117 37.4238C19.5224 37.4564 19.5365 37.4978 19.5544 37.5466C19.5902 37.644 19.6415 37.7727 19.7113 37.9224C19.8493 38.2184 20.0684 38.6162 20.3968 39.02C21.0717 39.8501 22.2298 40.7168 23.9768 40.7169C25.724 40.717 26.8823 39.8503 27.5572 39.02C27.8856 38.6161 28.1047 38.2183 28.2426 37.9222C28.3124 37.7724 28.3637 37.6437 28.3995 37.5464C28.4174 37.4975 28.4315 37.4562 28.4422 37.4235L28.4557 37.381L28.4607 37.3648L28.4627 37.358L28.4636 37.3549L28.464 37.3535C28.4642 37.3528 28.4644 37.3521 27.0092 36.9265L28.4644 37.3521C28.6995 36.5484 28.2385 35.7063 27.4348 35.4713C26.6372 35.238 25.8017 35.6903 25.5594 36.4829C25.5583 36.4861 25.5561 36.4926 25.5526 36.5021C25.5427 36.5291 25.5236 36.5781 25.494 36.6415C25.4333 36.7719 25.3381 36.9427 25.2042 37.1073C24.9548 37.4142 24.5969 37.6846 23.977 37.6846C23.3573 37.6845 22.9992 37.4141 22.7496 37.1071C22.6157 36.9424 22.5205 36.7716 22.4597 36.6412C22.4302 36.5778 22.411 36.5288 22.4011 36.5018C22.3976 36.4923 22.3954 36.4858 22.3943 36.4825C22.3938 36.4812 22.3936 36.4805 22.3935 36.4803C22.3934 36.48 22.3938 36.4811 22.3945 36.4835C22.3946 36.4839 22.3948 36.4843 22.3949 36.4848L22.3969 36.4912L22.3982 36.4955L22.3989 36.4979L22.3993 36.4992Z" fill="#949FBB"/>
<path fill-rule="evenodd" clip-rule="evenodd" d="M36.079 41.1869C35.9205 40.3682 35.1301 39.8306 34.3097 39.9852C33.4868 40.1402 32.9454 40.9329 33.1005 41.7558L34.5523 41.4823C33.1005 41.7558 33.1006 41.7566 33.1008 41.7574L33.1011 41.7591L33.1018 41.7629L33.1036 41.7723L33.1088 41.7977C33.1128 41.8176 33.1183 41.8433 33.1253 41.8743C33.1391 41.9364 33.1591 42.0204 33.1862 42.123C33.2404 42.328 33.3237 42.6098 33.4454 42.943C33.6874 43.6053 34.0899 44.4949 34.7356 45.3927C36.0587 47.2323 38.3811 49.056 42.1713 49.056C45.9614 49.056 48.2839 47.2323 49.6069 45.3927C50.2527 44.4949 50.6552 43.6053 50.8971 42.943C51.0188 42.6098 51.1022 42.328 51.1563 42.123C51.1834 42.0204 51.2034 41.9364 51.2173 41.8743C51.2243 41.8433 51.2297 41.8176 51.2338 41.7977L51.2389 41.7723L51.2407 41.7629L51.2415 41.7591L51.2418 41.7574C51.2419 41.7566 51.2421 41.7558 49.7902 41.4823L51.2421 41.7558C51.3971 40.933 50.8557 40.1402 50.0329 39.9852C49.2125 39.8306 48.422 40.3682 48.2636 41.1869C48.2632 41.1888 48.2629 41.1907 48.2625 41.1927L48.2636 41.1869L48.2582 41.2121C48.2522 41.2388 48.2413 41.2852 48.2246 41.3484C48.1911 41.4751 48.1349 41.6671 48.0489 41.9024C47.8754 42.3773 47.5898 43.0039 47.1451 43.6222C46.2873 44.815 44.8193 46.0236 42.1713 46.0236C39.5232 46.0236 38.0552 44.815 37.1974 43.6222C36.7527 43.0039 36.4671 42.3773 36.2937 41.9024C36.2077 41.6671 36.1514 41.4751 36.118 41.3484C36.1013 41.2852 36.0904 41.2388 36.0844 41.2121" fill="#949FBB"/>
</svg>
