<svg width="86" height="86" viewBox="0 0 86 86" fill="none" xmlns="http://www.w3.org/2000/svg">
<defs>
<radialGradient id="paint0_radial_466_6520" cx="0" cy="0" r="1" gradientUnits="userSpaceOnUse" gradientTransform="translate(42.7392 42.8954) rotate(90) scale(42.6423)">
<stop offset="0.530392" stop-color="#949FBB" stop-opacity="0.25"/>
<stop offset="0.892556" stop-color="#E6E8EE"/>
</radialGradient>
<linearGradient id="paint1_linear_466_6520" x1="0.0969238" y1="0.25312" x2="85.3816" y2="85.5378" gradientUnits="userSpaceOnUse">
<stop stop-color="#3A9FE9"/>
<stop offset="1" stop-color="#547EEC"/>
</linearGradient>
</defs>
<circle cx="42.5" cy="43.0648" r="33.2116" fill="#D6DCEC"/>
<circle cx="42.7392" cy="42.8954" r="42.6423" fill="url(#paint0_radial_466_6520)"/>
<path d="M84.9412 36.7831C85.8426 43.0062 85.3564 49.3517 83.5177 55.3649C81.6789 61.3781 78.5331 66.9102 74.3055 71.5649C70.0779 76.2197 64.8732 79.8819 59.0642 82.2892C53.2552 84.6964 46.9857 85.7892 40.7048 85.4892C34.4239 85.1892 28.2871 83.5039 22.734 80.5539C17.1809 77.6039 12.3489 73.4623 8.58419 68.4258C4.81948 63.3893 2.21522 57.5825 0.957975 51.4215C-0.299273 45.2604 -0.178393 38.8975 1.31196 32.7887L42.7392 42.8954L84.9412 36.7831Z" fill="url(#paint1_linear_466_6520)"/>
<ellipse cx="42.7393" cy="42.8954" rx="34.6824" ry="34.6824" fill="#F2F4F7"/>
<path fill-rule="evenodd" clip-rule="evenodd" d="M36.1062 45.5883C36.1062 44.751 36.785 44.0722 37.6224 44.0722L46.7194 44.0722C47.5568 44.0722 48.2356 44.751 48.2356 45.5883C48.2356 46.4257 47.5568 47.1045 46.7194 47.1045L37.6224 47.1045C36.785 47.1045 36.1062 46.4257 36.1062 45.5883Z" fill="#949FBB"/>
<path fill-rule="evenodd" clip-rule="evenodd" d="M36.1062 45.5883C36.1062 44.751 36.785 44.0722 37.6224 44.0722L46.7194 44.0722C47.5568 44.0722 48.2356 44.751 48.2356 45.5883C48.2356 46.4257 47.5568 47.1045 46.7194 47.1045L37.6224 47.1045C36.785 47.1045 36.1062 46.4257 36.1062 45.5883Z" fill="#949FBB"/>
<path fill-rule="evenodd" clip-rule="evenodd" d="M19.5884 34.2971C19.9629 33.5481 20.8736 33.2445 21.6225 33.619L27.6872 36.6514C28.2009 36.9082 28.5253 37.4332 28.5253 38.0075C28.5253 38.5818 28.2009 39.1067 27.6872 39.3636L21.6225 42.3959C20.8736 42.7704 19.9629 42.4668 19.5884 41.7179C19.2139 40.9689 19.5175 40.0582 20.2664 39.6837L23.6189 38.0075L20.2664 36.3312C19.5175 35.9568 19.2139 35.046 19.5884 34.2971Z" fill="#949FBB"/>
<path fill-rule="evenodd" clip-rule="evenodd" d="M19.5884 34.2971C19.9629 33.5481 20.8736 33.2445 21.6225 33.619L27.6872 36.6514C28.2009 36.9082 28.5253 37.4332 28.5253 38.0075C28.5253 38.5818 28.2009 39.1067 27.6872 39.3636L21.6225 42.3959C20.8736 42.7704 19.9629 42.4668 19.5884 41.7179C19.2139 40.9689 19.5175 40.0582 20.2664 39.6837L23.6189 38.0075L20.2664 36.3312C19.5175 35.9568 19.2139 35.046 19.5884 34.2971Z" fill="#949FBB"/>
<path fill-rule="evenodd" clip-rule="evenodd" d="M64.7534 41.7179C64.3789 42.4668 63.4682 42.7704 62.7193 42.3959L56.6546 39.3636C56.1409 39.1068 55.8165 38.5818 55.8165 38.0075C55.8165 37.4332 56.1409 36.9082 56.6546 36.6514L62.7193 33.619C63.4682 33.2445 64.3789 33.5481 64.7534 34.2971C65.1279 35.046 64.8243 35.9568 64.0754 36.3312L60.7229 38.0075L64.0754 39.6837C64.8243 40.0582 65.1279 40.9689 64.7534 41.7179Z" fill="#949FBB"/>
<path fill-rule="evenodd" clip-rule="evenodd" d="M64.7534 41.7179C64.3789 42.4668 63.4682 42.7704 62.7193 42.3959L56.6546 39.3636C56.1409 39.1068 55.8165 38.5818 55.8165 38.0075C55.8165 37.4332 56.1409 36.9082 56.6546 36.6514L62.7193 33.619C63.4682 33.2445 64.3789 33.5481 64.7534 34.2971C65.1279 35.046 64.8243 35.9568 64.0754 36.3312L60.7229 38.0075L64.0754 39.6837C64.8243 40.0582 65.1279 40.9689 64.7534 41.7179Z" fill="#949FBB"/>
</svg>
