<svg width="86" height="86" viewBox="0 0 86 86" fill="none" xmlns="http://www.w3.org/2000/svg">
<defs>
<radialGradient id="paint0_radial_466_6770" cx="0" cy="0" r="1" gradientUnits="userSpaceOnUse" gradientTransform="translate(42.7392 43.3306) rotate(90) scale(42.6423)">
<stop offset="0.530392" stop-color="#949FBB" stop-opacity="0.25"/>
<stop offset="0.892556" stop-color="#E6E8EE"/>
</radialGradient>
<linearGradient id="paint1_linear_466_6770" x1="0.0969238" y1="0.688309" x2="85.3816" y2="85.9729" gradientUnits="userSpaceOnUse">
<stop stop-color="#58C789"/>
<stop offset="1" stop-color="#47B1BE"/>
</linearGradient>
</defs>
<circle cx="42.5" cy="43.5" r="33.2116" fill="#D6DCEC"/>
<circle cx="42.7392" cy="43.3306" r="42.6423" fill="url(#paint0_radial_466_6770)"/>
<circle cx="42.7392" cy="43.3306" r="42.6423" fill="url(#paint1_linear_466_6770)"/>
<ellipse cx="42.7393" cy="43.3306" rx="34.6824" ry="34.6824" fill="#F2F4F7"/>
<path fill-rule="evenodd" clip-rule="evenodd" d="M36.0787 41.1868C35.9203 40.3681 35.1298 39.8305 34.3095 39.985C33.4866 40.1401 32.9452 40.9328 33.1002 41.7557L34.5521 41.4822C33.1002 41.7557 33.1004 41.7565 33.1005 41.7573L33.1008 41.759L33.1016 41.7628L33.1034 41.7722L33.1085 41.7976C33.1126 41.8175 33.1181 41.8432 33.125 41.8742C33.1389 41.9363 33.1589 42.0203 33.186 42.1229C33.2401 42.3279 33.3235 42.6097 33.4452 42.9429C33.6872 43.6052 34.0896 44.4947 34.7354 45.3926C36.0584 47.2322 38.3809 49.0559 42.171 49.0559C45.9612 49.0559 48.2836 47.2322 49.6067 45.3926C50.2524 44.4947 50.6549 43.6052 50.8969 42.9429C51.0186 42.6097 51.1019 42.3279 51.1561 42.1229C51.1832 42.0203 51.2032 41.9363 51.2171 41.8742C51.224 41.8432 51.2295 41.8175 51.2335 41.7976L51.2387 41.7722L51.2405 41.7628L51.2412 41.759L51.2416 41.7573C51.2417 41.7565 51.2418 41.7557 49.79 41.4822L51.2418 41.7557C51.3969 40.9328 50.8555 40.1401 50.0326 39.985C49.2122 39.8305 48.4218 40.3681 48.2634 41.1868C48.263 41.1887 48.2626 41.1906 48.2623 41.1926L48.2634 41.1868L48.2579 41.212C48.2519 41.2387 48.241 41.2851 48.2244 41.3483C48.1909 41.475 48.1346 41.667 48.0486 41.9023C47.8752 42.3772 47.5896 43.0038 47.1449 43.6221C46.2871 44.8148 44.8191 46.0235 42.171 46.0235C39.523 46.0235 38.055 44.8148 37.1972 43.6221C36.7525 43.0038 36.4669 42.3772 36.2934 41.9023C36.2074 41.667 36.1512 41.475 36.1177 41.3483C36.101 41.2851 36.0901 41.2387 36.0842 41.212" fill="#949FBB"/>
<path fill-rule="evenodd" clip-rule="evenodd" d="M61.9593 39.6814C61.9609 39.6861 61.9625 39.6908 61.9641 39.6955C61.9644 39.6963 61.9646 39.6968 61.9647 39.6971C61.9648 39.6974 61.9648 39.6975 61.9648 39.6975C61.9648 39.6975 61.9644 39.6965 61.9637 39.6944L61.9618 39.6888L61.9604 39.6849L61.9597 39.6826L61.9593 39.6814ZM58.7657 39.6955C58.767 39.692 58.7701 39.684 58.775 39.6719C58.787 39.6422 58.8093 39.5902 58.8426 39.5234C58.9111 39.3865 59.0164 39.2073 59.1606 39.0342C59.4397 38.6994 59.8056 38.4427 60.3649 38.4427C60.9242 38.4427 61.2901 38.6994 61.5692 39.0342C61.7134 39.2073 61.8187 39.3865 61.8871 39.5234C61.9205 39.5902 61.9428 39.6422 61.9548 39.6719C61.9597 39.684 61.9628 39.692 61.9641 39.6955C62.2347 40.4801 63.0874 40.9022 63.8767 40.6391C64.6711 40.3743 65.1004 39.5157 64.8356 38.7213L63.3972 39.2007C64.8356 38.7213 64.8354 38.7206 64.8352 38.72L64.8347 38.7186L64.8338 38.7158L64.8316 38.7094L64.8263 38.694L64.8117 38.6533C64.8001 38.6218 64.7849 38.5817 64.7656 38.5342C64.7273 38.4395 64.6726 38.3138 64.5994 38.1673C64.4546 37.8778 64.2283 37.4885 63.8987 37.093C63.2301 36.2907 62.0798 35.4103 60.3649 35.4103C58.65 35.4103 57.4997 36.2907 56.8311 37.093C56.5015 37.4885 56.2752 37.8778 56.1304 38.1673C56.0572 38.3138 56.0025 38.4395 55.9642 38.5342C55.9449 38.5817 55.9297 38.6218 55.9181 38.6533L55.9035 38.694L55.8982 38.7094L55.896 38.7158L55.8951 38.7186L55.8946 38.72C55.8944 38.7206 55.8942 38.7213 57.3326 39.2007L55.8942 38.7213C55.6294 39.5157 56.0587 40.3743 56.8531 40.6391C57.6424 40.9022 58.495 40.4801 58.7657 39.6955Z" fill="#949FBB"/>
<path fill-rule="evenodd" clip-rule="evenodd" d="M25.5546 39.628C25.5562 39.6336 25.5579 39.6391 25.5596 39.6447C25.8021 40.4372 26.6376 40.8893 27.4352 40.6559C28.2389 40.4206 28.6997 39.5785 28.4644 38.7748L27.0093 39.2007C28.4644 38.7748 28.4642 38.7741 28.464 38.7734L28.4636 38.772L28.4627 38.7689L28.4607 38.7621L28.4557 38.746L28.4422 38.7035C28.4315 38.6708 28.4173 38.6294 28.3994 38.5806C28.3637 38.4833 28.3123 38.3546 28.2425 38.2048C28.1045 37.9088 27.8854 37.5111 27.5571 37.1072C26.8822 36.2772 25.724 35.4104 23.9771 35.4103C22.2298 35.4102 21.0715 36.2769 20.3966 37.1072C20.0683 37.5111 19.8492 37.9089 19.7112 38.205C19.6415 38.3548 19.5901 38.4835 19.5544 38.5809C19.5365 38.6297 19.5224 38.6711 19.5117 38.7038L19.4981 38.7463L19.4932 38.7625L19.4912 38.7692L19.4902 38.7723L19.4898 38.7737C19.4896 38.7744 19.4894 38.7751 20.9446 39.2007L19.4894 38.7751C19.2544 39.5788 19.7153 40.4209 20.519 40.656C21.3167 40.8892 22.1522 40.4369 22.3944 39.6444C22.3955 39.6412 22.3978 39.6346 22.4013 39.6251C22.4112 39.5981 22.4303 39.5492 22.4599 39.4857C22.5206 39.3553 22.6158 39.1846 22.7496 39.0199C22.9991 38.713 23.357 38.4426 23.9769 38.4427C24.5966 38.4427 24.9546 38.7131 25.2042 39.0201C25.3381 39.1848 25.4334 39.3556 25.4941 39.486C25.5237 39.5494 25.5428 39.5984 25.5528 39.6254C25.5562 39.6349 25.5585 39.6415 25.5596 39.6447C25.56 39.646 25.5603 39.6468 25.5603 39.6469C25.5604 39.6472 25.5601 39.6462 25.5593 39.6438C25.5592 39.6434 25.5591 39.6429 25.5589 39.6425L25.557 39.636L25.5557 39.6317L25.555 39.6293L25.5546 39.628Z" fill="#949FBB"/>
</svg>
