<svg width="86" height="86" viewBox="0 0 86 86" fill="none" xmlns="http://www.w3.org/2000/svg">
<defs>
<radialGradient id="paint0_radial_466_7192" cx="0" cy="0" r="1" gradientUnits="userSpaceOnUse" gradientTransform="translate(42.7392 43.3306) rotate(90) scale(42.6423)">
<stop offset="0.530392" stop-color="#949FBB" stop-opacity="0.25"/>
<stop offset="0.892556" stop-color="#E6E8EE"/>
</radialGradient>
<linearGradient id="paint1_linear_466_7192" x1="0.0969238" y1="0.688293" x2="85.3816" y2="85.9729" gradientUnits="userSpaceOnUse">
<stop stop-color="#949FBB"/>
<stop offset="1" stop-color="#949FBB"/>
</linearGradient>
</defs>
<circle cx="42.5" cy="43.5" r="33.2116" fill="#D6DCEC"/>
<circle cx="42.7392" cy="43.3306" r="42.6423" fill="url(#paint0_radial_466_7192)"/>
<circle cx="42.7392" cy="43.3306" r="42.6423" fill="url(#paint1_linear_466_7192)"/>
<ellipse cx="42.7393" cy="43.3306" rx="34.6824" ry="34.6824" fill="#F2F4F7"/>
<path fill-rule="evenodd" clip-rule="evenodd" d="M36.1062 46.0235C36.1062 45.1862 36.785 44.5074 37.6224 44.5074L46.7194 44.5074C47.5568 44.5074 48.2356 45.1862 48.2356 46.0235C48.2356 46.8609 47.5568 47.5397 46.7194 47.5397L37.6224 47.5397C36.785 47.5397 36.1062 46.8609 36.1062 46.0235Z" fill="#949FBB"/>
<path fill-rule="evenodd" clip-rule="evenodd" d="M36.1062 46.0235C36.1062 45.1862 36.785 44.5074 37.6224 44.5074L46.7194 44.5074C47.5568 44.5074 48.2356 45.1862 48.2356 46.0235C48.2356 46.8609 47.5568 47.5397 46.7194 47.5397L37.6224 47.5397C36.785 47.5397 36.1062 46.8609 36.1062 46.0235Z" fill="#949FBB"/>
<path fill-rule="evenodd" clip-rule="evenodd" d="M19.5884 34.7323C19.9629 33.9833 20.8736 33.6797 21.6225 34.0542L27.6872 37.0866C28.2009 37.3434 28.5253 37.8684 28.5253 38.4427C28.5253 39.017 28.2009 39.542 27.6872 39.7988L21.6225 42.8311C20.8736 43.2056 19.9629 42.902 19.5884 42.1531C19.2139 41.4041 19.5175 40.4934 20.2664 40.1189L23.6189 38.4427L20.2664 36.7664C19.5175 36.392 19.2139 35.4812 19.5884 34.7323Z" fill="#949FBB"/>
<path fill-rule="evenodd" clip-rule="evenodd" d="M19.5884 34.7323C19.9629 33.9833 20.8736 33.6797 21.6225 34.0542L27.6872 37.0866C28.2009 37.3434 28.5253 37.8684 28.5253 38.4427C28.5253 39.017 28.2009 39.542 27.6872 39.7988L21.6225 42.8311C20.8736 43.2056 19.9629 42.902 19.5884 42.1531C19.2139 41.4041 19.5175 40.4934 20.2664 40.1189L23.6189 38.4427L20.2664 36.7664C19.5175 36.392 19.2139 35.4812 19.5884 34.7323Z" fill="#949FBB"/>
<path fill-rule="evenodd" clip-rule="evenodd" d="M64.7534 42.1531C64.3789 42.902 63.4682 43.2056 62.7193 42.8311L56.6546 39.7988C56.1409 39.5419 55.8165 39.017 55.8165 38.4427C55.8165 37.8684 56.1409 37.3434 56.6546 37.0866L62.7193 34.0542C63.4682 33.6797 64.3789 33.9833 64.7534 34.7323C65.1279 35.4812 64.8243 36.392 64.0754 36.7664L60.7229 38.4427L64.0754 40.1189C64.8243 40.4934 65.1279 41.4041 64.7534 42.1531Z" fill="#949FBB"/>
<path fill-rule="evenodd" clip-rule="evenodd" d="M64.7534 42.1531C64.3789 42.902 63.4682 43.2056 62.7193 42.8311L56.6546 39.7988C56.1409 39.5419 55.8165 39.017 55.8165 38.4427C55.8165 37.8684 56.1409 37.3434 56.6546 37.0866L62.7193 34.0542C63.4682 33.6797 64.3789 33.9833 64.7534 34.7323C65.1279 35.4812 64.8243 36.392 64.0754 36.7664L60.7229 38.4427L64.0754 40.1189C64.8243 40.4934 65.1279 41.4041 64.7534 42.1531Z" fill="#949FBB"/>
</svg>
