<svg width="24" height="24" viewBox="0 0 24 24" fill="none" xmlns="http://www.w3.org/2000/svg">
<circle cx="12" cy="12" r="9" stroke="#949FBB" stroke-width="2"/>
<path d="M7 4C7.83333 5.16667 10 8.8 10 12C10 15.2 7.83333 18.6667 7 20" stroke="#949FBB" stroke-width="2"/>
<path d="M7 4C7.83333 5.16667 10 8.8 10 12C10 15.2 7.83333 18.6667 7 20" stroke="#949FBB" stroke-width="2"/>
<path d="M17 20C16.1667 18.8333 14 15.2 14 12C14 8.8 16.1667 5.33333 17 4" stroke="#949FBB" stroke-width="2"/>
<path d="M17 20C16.1667 18.8333 14 15.2 14 12C14 8.8 16.1667 5.33333 17 4" stroke="#949FBB" stroke-width="2"/>
<path d="M3 12H21" stroke="#949FBB" stroke-width="2"/>
<path d="M3 12H21" stroke="#949FBB" stroke-width="2"/>
</svg>
