<svg width="24" height="24" viewBox="0 0 24 24" fill="none" xmlns="http://www.w3.org/2000/svg">
<path d="M3.81689 15.0115C6.7602 12.2712 5.83495 3 11.9617 3C18.0885 3 17.1182 11.9098 20.2399 15.0115C22.652 17.408 18.7778 16.9122 15 17C15 20 14.1736 21 11.9728 21C10.2121 21 9 20 9 17C5.16795 16.8948 1.30424 17.3508 3.81689 15.0115Z" fill="#949FBB"/>
<path d="M9 17C10.0325 17.0283 11.0582 17 11.9617 17C12.9294 17 13.8884 17.0258 15 17M9 17C5.16795 16.8948 1.30424 17.3508 3.81689 15.0115C6.7602 12.2712 5.83495 3 11.9617 3C18.0885 3 17.1182 11.9098 20.2399 15.0115C22.652 17.408 18.7778 16.9122 15 17M9 17C9 20 10.2121 21 11.9728 21C14.1736 21 15 20 15 17" stroke="#F2F4F7" stroke-linecap="round" stroke-linejoin="round"/>
</svg>
