<svg width="48" height="24" viewBox="0 0 48 24" fill="none" xmlns="http://www.w3.org/2000/svg">
<path fill-rule="evenodd" clip-rule="evenodd" d="M20 14C20 13.4477 20.4477 13 21 13L27 13C27.5523 13 28 13.4477 28 14C28 14.5523 27.5523 15 27 15L21 15C20.4477 15 20 14.5523 20 14Z" fill="#949FBB"/>
<path fill-rule="evenodd" clip-rule="evenodd" d="M20 14C20 13.4477 20.4477 13 21 13L27 13C27.5523 13 28 13.4477 28 14C28 14.5523 27.5523 15 27 15L21 15C20.4477 15 20 14.5523 20 14Z" fill="#949FBB"/>
<path fill-rule="evenodd" clip-rule="evenodd" d="M9.10579 6.55279C9.35278 6.05881 9.95345 5.85859 10.4474 6.10558L14.4474 8.10558C14.7862 8.27497 15.0002 8.62123 15.0002 9.00001C15.0002 9.37878 14.7862 9.72504 14.4474 9.89443L10.4474 11.8944C9.95345 12.1414 9.35278 11.9412 9.10579 11.4472C8.8588 10.9532 9.05903 10.3526 9.55301 10.1056L11.7642 9.00001L9.55301 7.89443C9.05903 7.64744 8.8588 7.04677 9.10579 6.55279Z" fill="#949FBB"/>
<path fill-rule="evenodd" clip-rule="evenodd" d="M9.10579 6.55279C9.35278 6.05881 9.95345 5.85859 10.4474 6.10558L14.4474 8.10558C14.7862 8.27497 15.0002 8.62123 15.0002 9.00001C15.0002 9.37878 14.7862 9.72504 14.4474 9.89443L10.4474 11.8944C9.95345 12.1414 9.35278 11.9412 9.10579 11.4472C8.8588 10.9532 9.05903 10.3526 9.55301 10.1056L11.7642 9.00001L9.55301 7.89443C9.05903 7.64744 8.8588 7.04677 9.10579 6.55279Z" fill="#949FBB"/>
<path fill-rule="evenodd" clip-rule="evenodd" d="M38.8947 11.4472C38.6477 11.9412 38.047 12.1414 37.5531 11.8944L33.5531 9.89442C33.2143 9.72503 33.0003 9.37877 33.0003 8.99999C33.0003 8.62122 33.2143 8.27496 33.5531 8.10557L37.5531 6.10557C38.047 5.85858 38.6477 6.0588 38.8947 6.55278C39.1417 7.04676 38.9415 7.64743 38.4475 7.89442L36.2363 8.99999L38.4475 10.1056C38.9415 10.3526 39.1417 10.9532 38.8947 11.4472Z" fill="#949FBB"/>
<path fill-rule="evenodd" clip-rule="evenodd" d="M38.8947 11.4472C38.6477 11.9412 38.047 12.1414 37.5531 11.8944L33.5531 9.89442C33.2143 9.72503 33.0003 9.37877 33.0003 8.99999C33.0003 8.62122 33.2143 8.27496 33.5531 8.10557L37.5531 6.10557C38.047 5.85858 38.6477 6.0588 38.8947 6.55278C39.1417 7.04676 38.9415 7.64743 38.4475 7.89442L36.2363 8.99999L38.4475 10.1056C38.9415 10.3526 39.1417 10.9532 38.8947 11.4472Z" fill="#949FBB"/>
</svg>
