<svg width="48" height="24" viewBox="0 0 48 24" fill="none" xmlns="http://www.w3.org/2000/svg">
<path fill-rule="evenodd" clip-rule="evenodd" d="M19.9815 10.8099C19.877 10.27 19.3556 9.91534 18.8145 10.0173C18.2718 10.1195 17.9147 10.6424 18.017 11.1851L18.9746 11.0047C18.017 11.1852 18.0171 11.1857 18.0172 11.1862L18.0174 11.1873L18.0179 11.1898L18.0191 11.196L18.0225 11.2128C18.0252 11.2259 18.0287 11.2428 18.0333 11.2633C18.0425 11.3043 18.0557 11.3596 18.0736 11.4273C18.1093 11.5625 18.1642 11.7484 18.2445 11.9682C18.4041 12.405 18.6696 12.9917 19.0955 13.5839C19.9681 14.7972 21.4999 16 23.9997 16C26.4995 16 28.0313 14.7972 28.9039 13.5839C29.3298 12.9917 29.5953 12.405 29.7549 11.9682C29.8352 11.7484 29.8901 11.5625 29.9258 11.4273C29.9437 11.3596 29.9569 11.3043 29.9661 11.2633C29.9706 11.2428 29.9742 11.2259 29.9769 11.2128L29.9803 11.196L29.9815 11.1898L29.982 11.1873L29.9822 11.1862C29.9823 11.1857 29.9824 11.1852 29.0248 11.0047L29.9824 11.1852C30.0847 10.6424 29.7276 10.1195 29.1848 10.0173C28.6438 9.91534 28.1224 10.2699 28.0179 10.8099C28.0177 10.8112 28.0174 10.8124 28.0172 10.8137L28.0179 10.8099L28.0143 10.8265C28.0104 10.8442 28.0032 10.8747 27.9922 10.9164C27.9701 11 27.933 11.1266 27.8763 11.2818C27.7619 11.595 27.5735 12.0083 27.2802 12.4161C26.7144 13.2028 25.7462 14 23.9997 14C22.2531 14 21.2849 13.2028 20.7191 12.4161C20.4258 12.0083 20.2375 11.595 20.1231 11.2818C20.0664 11.1266 20.0293 11 20.0072 10.9164C19.9962 10.8747 19.989 10.8442 19.9851 10.8265" fill="#949FBB"/>
<path fill-rule="evenodd" clip-rule="evenodd" d="M37.0513 9.81705C37.0524 9.82015 37.0534 9.82325 37.0545 9.82633C37.0547 9.82684 37.0548 9.82719 37.0549 9.82741C37.0549 9.82756 37.055 9.82763 37.055 9.82763C37.055 9.82763 37.0547 9.82696 37.0542 9.8256L37.053 9.82189L37.0521 9.81931L37.0516 9.81783L37.0513 9.81705ZM34.945 9.82633C34.9458 9.82402 34.9479 9.8187 34.9511 9.81074C34.959 9.79117 34.9737 9.75687 34.9957 9.71284C35.0409 9.62253 35.1103 9.50431 35.2054 9.39018C35.3895 9.16933 35.6308 9 35.9997 9C36.3686 9 36.61 9.16933 36.794 9.39018C36.8891 9.50431 36.9586 9.62253 37.0037 9.71284C37.0258 9.75687 37.0404 9.79117 37.0484 9.81074C37.0516 9.81871 37.0536 9.82403 37.0545 9.82633C37.233 10.3438 37.7954 10.6222 38.316 10.4487C38.8399 10.274 39.1231 9.70772 38.9484 9.18377L37.9997 9.5C38.9484 9.18377 38.9483 9.18335 38.9481 9.18292L38.9478 9.18203L38.9472 9.18014L38.9458 9.17593L38.9423 9.1658L38.9326 9.1389C38.925 9.11813 38.9149 9.09168 38.9023 9.06035C38.877 8.99789 38.8409 8.915 38.7926 8.81841C38.6971 8.62747 38.5478 8.37069 38.3304 8.10982C37.8895 7.58067 37.1308 7 35.9997 7C34.8686 7 34.11 7.58067 33.669 8.10982C33.4516 8.37069 33.3023 8.62747 33.2069 8.81841C33.1586 8.915 33.1225 8.99789 33.0972 9.06035C33.0845 9.09168 33.0745 9.11813 33.0668 9.1389L33.0572 9.1658L33.0537 9.17593L33.0523 9.18014L33.0516 9.18203L33.0513 9.18292C33.0512 9.18335 33.051 9.18377 33.9997 9.5L33.051 9.18377C32.8764 9.70772 33.1596 10.274 33.6835 10.4487C34.2041 10.6222 34.7665 10.3438 34.945 9.82633Z" fill="#949FBB"/>
<path fill-rule="evenodd" clip-rule="evenodd" d="M13.0403 9.7818C13.0413 9.78548 13.0424 9.78915 13.0436 9.7928C13.2035 10.3155 13.7546 10.6137 14.2807 10.4597C14.8107 10.3046 15.1146 9.74913 14.9595 9.21908L13.9997 9.5C14.9595 9.21908 14.9593 9.21863 14.9592 9.21817L14.9589 9.21721L14.9583 9.21519L14.957 9.21072L14.9537 9.20004L14.9448 9.17201C14.9377 9.15046 14.9284 9.12318 14.9166 9.09099C14.893 9.02679 14.8592 8.94191 14.8131 8.84314C14.7221 8.64789 14.5776 8.38556 14.361 8.1192C13.9159 7.57173 13.152 7.00008 11.9998 7C10.8474 6.99992 10.0834 7.57159 9.6383 8.11919C9.42173 8.38561 9.27724 8.64799 9.18625 8.84327C9.14022 8.94205 9.10636 9.02696 9.08281 9.09117C9.071 9.12337 9.06167 9.15066 9.05462 9.17221L9.04569 9.20025L9.04243 9.21092L9.04109 9.2154L9.0405 9.21742L9.04022 9.21837C9.04008 9.21883 9.03995 9.21929 9.99974 9.5L9.03995 9.21929C8.88491 9.74937 9.18895 10.3048 9.71903 10.4598C10.2451 10.6137 10.7962 10.3153 10.956 9.7926C10.9567 9.79048 10.9582 9.78617 10.9605 9.77992C10.967 9.76209 10.9796 9.7298 10.9991 9.68795C11.0392 9.60197 11.102 9.48933 11.1902 9.38073C11.3548 9.17831 11.5908 8.99997 11.9997 9C12.4084 9.00003 12.6445 9.17837 12.8092 9.38088C12.8975 9.4895 12.9603 9.60215 13.0004 9.68814C13.0199 9.72999 13.0325 9.76229 13.0391 9.78011C13.0414 9.78637 13.0428 9.79068 13.0436 9.7928C13.0439 9.79367 13.044 9.79418 13.0441 9.7943C13.0441 9.79447 13.0439 9.79379 13.0434 9.79221C13.0433 9.79195 13.0432 9.79166 13.0431 9.79135L13.0418 9.78711L13.041 9.78426L13.0405 9.78265L13.0403 9.7818Z" fill="#949FBB"/>
</svg>
