<svg width="48" height="24" viewBox="0 0 48 24" fill="none" xmlns="http://www.w3.org/2000/svg">
<path fill-rule="evenodd" clip-rule="evenodd" d="M34.9482 7.68295C34.9472 7.67985 34.9461 7.67675 34.945 7.67367C34.9449 7.67316 34.9447 7.67281 34.9446 7.67259C34.9446 7.67244 34.9446 7.67237 34.9446 7.67237C34.9446 7.67237 34.9448 7.67304 34.9453 7.6744L34.9466 7.67811L34.9474 7.68069L34.9479 7.68217L34.9482 7.68295ZM37.0545 7.67367C37.0537 7.67598 37.0516 7.6813 37.0484 7.68926C37.0405 7.70883 37.0258 7.74313 37.0038 7.78716C36.9586 7.87747 36.8892 7.99569 36.7941 8.10982C36.61 8.33067 36.3687 8.5 35.9998 8.5C35.6309 8.5 35.3896 8.33067 35.2055 8.10982C35.1104 7.99569 35.0409 7.87747 34.9958 7.78716C34.9738 7.74313 34.9591 7.70883 34.9511 7.68926C34.9479 7.68129 34.9459 7.67597 34.945 7.67367C34.7665 7.1562 34.2041 6.8778 33.6836 7.05132C33.1596 7.22596 32.8765 7.79228 33.0511 8.31623L33.9998 8C33.0511 8.31623 33.0512 8.31665 33.0514 8.31708L33.0517 8.31797L33.0523 8.31986L33.0537 8.32407L33.0572 8.3342L33.0669 8.3611C33.0745 8.38187 33.0846 8.40832 33.0973 8.43965C33.1225 8.50211 33.1586 8.585 33.2069 8.68159C33.3024 8.87253 33.4517 9.12931 33.6691 9.39018C34.11 9.91933 34.8687 10.5 35.9998 10.5C37.1309 10.5 37.8896 9.91933 38.3305 9.39018C38.5479 9.12931 38.6972 8.87253 38.7926 8.68159C38.8409 8.585 38.877 8.50211 38.9023 8.43965C38.915 8.40832 38.9251 8.38187 38.9327 8.3611L38.9423 8.3342L38.9458 8.32407L38.9472 8.31986L38.9479 8.31797L38.9482 8.31708C38.9483 8.31665 38.9485 8.31623 37.9998 8L38.9485 8.31623C39.1231 7.79228 38.84 7.22596 38.316 7.05132C37.7954 6.8778 37.2331 7.1562 37.0545 7.67367Z" fill="#949FBB"/>
<path fill-rule="evenodd" clip-rule="evenodd" d="M10.9592 7.7182C10.9582 7.71452 10.9571 7.71085 10.9559 7.7072C10.796 7.1845 10.2449 6.88629 9.71886 7.04027C9.18881 7.19541 8.88489 7.75087 9.04004 8.28092L9.99977 8C9.04004 8.28092 9.04017 8.28137 9.04031 8.28183L9.04059 8.28279L9.04119 8.28481L9.04252 8.28928L9.04578 8.29996L9.05472 8.32799C9.06178 8.34954 9.0711 8.37682 9.08292 8.40901C9.10649 8.47321 9.14036 8.55809 9.1864 8.65686C9.27741 8.85211 9.42193 9.11444 9.6385 9.3808C10.0836 9.92827 10.8475 10.4999 11.9997 10.5C13.1521 10.5001 13.9161 9.92841 14.3612 9.38081C14.5778 9.11439 14.7223 8.85201 14.8133 8.65673C14.8593 8.55795 14.8931 8.47304 14.9167 8.40883C14.9285 8.37663 14.9378 8.34934 14.9449 8.32779L14.9538 8.29975L14.9571 8.28908L14.9584 8.2846L14.959 8.28258L14.9593 8.28163C14.9594 8.28117 14.9596 8.28071 13.9998 8L14.9596 8.28071C15.1146 7.75063 14.8106 7.19524 14.2805 7.04021C13.7544 6.88634 13.2033 7.18468 13.0435 7.7074C13.0428 7.70952 13.0413 7.71383 13.039 7.72008C13.0325 7.73791 13.0199 7.7702 13.0004 7.81205C12.9603 7.89803 12.8976 8.01067 12.8093 8.11927C12.6447 8.32169 12.4087 8.50003 11.9998 8.5C11.5911 8.49997 11.355 8.32163 11.1903 8.11912C11.102 8.0105 11.0392 7.89785 10.9991 7.81186C10.9796 7.77001 10.967 7.73771 10.9604 7.71989C10.9582 7.71363 10.9567 7.70932 10.9559 7.7072C10.9557 7.70633 10.9555 7.70582 10.9554 7.7057C10.9554 7.70553 10.9556 7.70621 10.9561 7.70779C10.9562 7.70805 10.9563 7.70834 10.9564 7.70865L10.9577 7.71289L10.9585 7.71574L10.959 7.71735L10.9592 7.7182Z" fill="#949FBB"/>
<path fill-rule="evenodd" clip-rule="evenodd" d="M19.982 10.81C19.8775 10.27 19.3561 9.9154 18.815 10.0174C18.2723 10.1196 17.9152 10.6425 18.0175 11.1852L18.9751 11.0048C18.0175 11.1852 18.0176 11.1857 18.0177 11.1862L18.0179 11.1874L18.0184 11.1899L18.0196 11.1961L18.0229 11.2129C18.0256 11.226 18.0292 11.2429 18.0338 11.2634C18.043 11.3043 18.0561 11.3597 18.074 11.4274C18.1098 11.5626 18.1647 11.7484 18.245 11.9682C18.4046 12.405 18.67 12.9917 19.096 13.5839C19.9686 14.7972 21.5004 16.0001 24.0002 16.0001C26.5 16.0001 28.0318 14.7972 28.9044 13.5839C29.3303 12.9917 29.5958 12.405 29.7554 11.9682C29.8356 11.7484 29.8906 11.5626 29.9263 11.4274C29.9442 11.3597 29.9574 11.3043 29.9665 11.2634C29.9711 11.2429 29.9747 11.226 29.9774 11.2129L29.9808 11.1961L29.982 11.1899L29.9825 11.1874L29.9827 11.1862C29.9828 11.1857 29.9829 11.1852 29.0253 11.0048L29.9829 11.1852C30.0851 10.6425 29.7281 10.1196 29.1853 10.0174C28.6442 9.91541 28.1229 10.27 28.0184 10.81C28.0182 10.8112 28.0179 10.8125 28.0177 10.8138L28.0184 10.81L28.0148 10.8266C28.0109 10.8442 28.0037 10.8748 27.9927 10.9165C27.9706 11 27.9335 11.1267 27.8768 11.2819C27.7624 11.5951 27.574 12.0084 27.2807 12.4162C26.7149 13.2029 25.7467 14.0001 24.0002 14.0001C22.2536 14.0001 21.2854 13.2029 20.7196 12.4162C20.4263 12.0084 20.238 11.5951 20.1236 11.2819C20.0669 11.1267 20.0298 11 20.0077 10.9165C19.9967 10.8748 19.9895 10.8442 19.9855 10.8266" fill="#949FBB"/>
</svg>
