<svg width="24" height="24" viewBox="0 0 24 24" fill="none" xmlns="http://www.w3.org/2000/svg">
<path d="M10 9C10 6 4 6 4 9C4 12 10 12 10 15C10 18 4 18 4 15" stroke="#949FBB" stroke-width="2" stroke-linecap="round" stroke-linejoin="round"/>
<path d="M10 9C10 6 4 6 4 9C4 12 10 12 10 15C10 18 4 18 4 15" stroke="#949FBB" stroke-width="2" stroke-linecap="round" stroke-linejoin="round"/>
<path d="M20 8.99998C20 5.99997 14 5.99996 14 8.99997C14 12 20 12 20 15C20 18 14 18 14 15" stroke="#949FBB" stroke-width="2" stroke-linecap="round" stroke-linejoin="round"/>
<path d="M20 8.99998C20 5.99997 14 5.99996 14 8.99997C14 12 20 12 20 15C20 18 14 18 14 15" stroke="#949FBB" stroke-width="2" stroke-linecap="round" stroke-linejoin="round"/>
<path d="M7 5V19" stroke="#949FBB" stroke-width="2" stroke-linecap="round"/>
<path d="M17 5V19" stroke="#949FBB" stroke-width="2" stroke-linecap="round"/>
</svg>
