<svg width="24" height="24" viewBox="0 0 24 24" fill="none" xmlns="http://www.w3.org/2000/svg">
<path d="M19.1969 16C19.1969 13.9298 16.4952 11.979 14.6969 13.5C13.1969 14.7688 13.6969 16.6319 15.1969 17.5C16.6969 18.3681 19.1969 17.5 19.1969 16ZM19.1969 16V7.63246M8.19694 18C8.19694 15.704 4.97169 14.2253 3.69694 15.5C2.69693 16.5 2.69693 18.5 4.19694 19.5C5.69695 20.5 8.19693 20 8.19694 18ZM8.19694 18V11M8.19694 11V7L19.1969 3V7.63246M8.19694 11L19.1969 7.63246" stroke="#949FBB" stroke-width="2" stroke-linecap="round" stroke-linejoin="round"/>
<path d="M19.1969 16C19.1969 13.9298 16.4952 11.979 14.6969 13.5C13.1969 14.7688 13.6969 16.6319 15.1969 17.5C16.6969 18.3681 19.1969 17.5 19.1969 16ZM19.1969 16V7.63246M8.19694 18C8.19694 15.704 4.97169 14.2253 3.69694 15.5C2.69693 16.5 2.69693 18.5 4.19694 19.5C5.69695 20.5 8.19693 20 8.19694 18ZM8.19694 18V11M8.19694 11V7L19.1969 3V7.63246M8.19694 11L19.1969 7.63246" stroke="#949FBB" stroke-width="2" stroke-linecap="round" stroke-linejoin="round"/>
</svg>
