<svg width="24" height="24" viewBox="0 0 24 24" fill="none" xmlns="http://www.w3.org/2000/svg">
<path d="M9 10C9 8 10.5 7 12 7C13.5 7 15 8 15 10C15 12 12 13 12 13C12 13 12 13.8333 12 14" stroke="#949FBB" stroke-width="2" stroke-linecap="round" stroke-linejoin="round"/>
<path d="M9 10C9 8 10.5 7 12 7C13.5 7 15 8 15 10C15 12 12 13 12 13C12 13 12 13.8333 12 14" stroke="#949FBB" stroke-width="2" stroke-linecap="round" stroke-linejoin="round"/>
<circle cx="12" cy="17" r="1" fill="#949FBB"/>
<circle cx="12" cy="12" r="9" stroke="#949FBB" stroke-width="2"/>
</svg>
