<svg width="24" height="24" viewBox="0 0 24 24" fill="none" xmlns="http://www.w3.org/2000/svg">
<mask id="path-1-inside-1_367_4385" fill="white">
<path fill-rule="evenodd" clip-rule="evenodd" d="M8.89642 5.6243L6.65284 4.54816C5.40282 5.34066 4.34066 6.40282 3.54816 7.65284L4.6243 9.89642C4.61271 9.92392 4.60127 9.95151 4.58998 9.97917L2.24166 10.805C2.08346 11.5114 2 12.2459 2 13C2 13.7541 2.08346 14.4886 2.24166 15.195L4.58998 16.0208C4.60127 16.0485 4.61271 16.0761 4.6243 16.1036L3.54816 18.3472C4.34066 19.5972 5.40283 20.6593 6.65284 21.4518L8.89642 20.3757C8.92392 20.3873 8.95151 20.3987 8.97917 20.41L9.805 22.7583C10.5114 22.9165 11.2459 23 12 23C12.7541 23 13.4886 22.9165 14.195 22.7583L15.0208 20.41C15.0485 20.3987 15.0761 20.3873 15.1036 20.3757L17.3472 21.4518C18.5972 20.6593 19.6593 19.5972 20.4518 18.3472L19.3757 16.1036C19.3873 16.0761 19.3987 16.0485 19.41 16.0208L21.7583 15.195C21.9165 14.4886 22 13.7541 22 13C22 12.2459 21.9165 11.5114 21.7583 10.805L19.41 9.97917C19.3987 9.95151 19.3873 9.92392 19.3757 9.89642L20.4518 7.65284C19.6593 6.40283 18.5972 5.34066 17.3472 4.54816L15.1036 5.6243C15.0761 5.61271 15.0485 5.60127 15.0208 5.58998L14.195 3.24166C13.4886 3.08346 12.7541 3 12 3C11.2459 3 10.5114 3.08346 9.805 3.24166L8.97917 5.58998C8.95151 5.60127 8.92392 5.61271 8.89642 5.6243ZM12 11C10.8954 11 10 11.8954 10 13C10 14.1046 10.8954 15 12 15C13.1046 15 14 14.1046 14 13C14 11.8954 13.1046 11 12 11Z"/>
</mask>
<path d="M6.65284 4.54816L7.5178 2.74487L6.51824 2.26543L5.58195 2.85902L6.65284 4.54816ZM8.89642 5.6243L8.03147 7.42759L8.84322 7.81695L9.6729 7.46741L8.89642 5.6243ZM3.54816 7.65284L1.85902 6.58195L1.26543 7.51824L1.74487 8.5178L3.54816 7.65284ZM4.6243 9.89642L6.46741 10.6729L6.81695 9.84322L6.42759 9.03147L4.6243 9.89642ZM4.58998 9.97917L5.25349 11.8659L6.10191 11.5675L6.44173 10.7348L4.58998 9.97917ZM2.24166 10.805L1.57815 8.91827L0.532295 9.28607L0.290005 10.3679L2.24166 10.805ZM2.24166 15.195L0.290005 15.6321L0.532296 16.7139L1.57815 17.0817L2.24166 15.195ZM4.58998 16.0208L6.44173 15.2652L6.10191 14.4325L5.25349 14.1341L4.58998 16.0208ZM4.6243 16.1036L6.42759 16.9685L6.81695 16.1568L6.46741 15.3271L4.6243 16.1036ZM3.54816 18.3472L1.74487 17.4822L1.26543 18.4818L1.85902 19.418L3.54816 18.3472ZM6.65284 21.4518L5.58195 23.141L6.51824 23.7346L7.5178 23.2551L6.65284 21.4518ZM8.89642 20.3757L9.67296 18.5326L8.84325 18.183L8.03147 18.5724L8.89642 20.3757ZM8.97917 20.41L10.8659 19.7465L10.5675 18.8981L9.7348 18.5583L8.97917 20.41ZM9.805 22.7583L7.91827 23.4218L8.28607 24.4677L9.36791 24.71L9.805 22.7583ZM14.195 22.7583L14.6321 24.71L15.7139 24.4677L16.0817 23.4218L14.195 22.7583ZM15.0208 20.41L14.2652 18.5583L13.4325 18.8981L13.1341 19.7465L15.0208 20.41ZM15.1036 20.3757L15.9685 18.5724L15.1567 18.183L14.327 18.5326L15.1036 20.3757ZM17.3472 21.4518L16.4822 23.2551L17.4818 23.7346L18.418 23.141L17.3472 21.4518ZM20.4518 18.3472L22.141 19.418L22.7346 18.4818L22.2551 17.4822L20.4518 18.3472ZM19.3757 16.1036L17.5326 15.327L17.183 16.1567L17.5724 16.9685L19.3757 16.1036ZM19.41 16.0208L18.7465 14.1341L17.8981 14.4325L17.5583 15.2652L19.41 16.0208ZM21.7583 15.195L22.4218 17.0817L23.4677 16.7139L23.71 15.6321L21.7583 15.195ZM21.7583 10.805L23.71 10.3679L23.4677 9.28607L22.4218 8.91827L21.7583 10.805ZM19.41 9.97917L17.5583 10.7348L17.8981 11.5675L18.7465 11.8659L19.41 9.97917ZM19.3757 9.89642L17.5724 9.03147L17.183 9.84325L17.5326 10.673L19.3757 9.89642ZM20.4518 7.65284L22.2551 8.5178L22.7346 7.51824L22.141 6.58195L20.4518 7.65284ZM17.3472 4.54816L18.418 2.85902L17.4818 2.26543L16.4822 2.74487L17.3472 4.54816ZM15.1036 5.6243L14.3271 7.46741L15.1568 7.81695L15.9685 7.42759L15.1036 5.6243ZM15.0208 5.58998L13.1341 6.25349L13.4325 7.10191L14.2652 7.44173L15.0208 5.58998ZM14.195 3.24166L16.0817 2.57815L15.7139 1.5323L14.6321 1.29001L14.195 3.24166ZM9.805 3.24166L9.36791 1.29001L8.28607 1.5323L7.91827 2.57815L9.805 3.24166ZM8.97917 5.58998L9.73485 7.44173L10.5675 7.10191L10.8659 6.25349L8.97917 5.58998ZM5.78789 6.35145L8.03147 7.42759L9.76137 3.82101L7.5178 2.74487L5.78789 6.35145ZM5.2373 8.72374C5.87183 7.72287 6.72287 6.87183 7.72374 6.2373L5.58195 2.85902C4.08278 3.80948 2.80948 5.08278 1.85902 6.58195L5.2373 8.72374ZM6.42759 9.03147L5.35145 6.78789L1.74487 8.5178L2.82101 10.7614L6.42759 9.03147ZM2.78118 9.11993C2.76668 9.15435 2.75237 9.18887 2.73824 9.2235L6.44173 10.7348C6.45017 10.7141 6.45874 10.6935 6.46741 10.6729L2.78118 9.11993ZM2.90516 12.6917L5.25349 11.8659L3.92648 8.09244L1.57815 8.91827L2.90516 12.6917ZM4 13C4 12.3939 4.06704 11.8059 4.19331 11.2421L0.290005 10.3679C0.099892 11.2168 0 12.0979 0 13H4ZM4.19331 14.7579C4.06704 14.1941 4 13.6061 4 13H0C0 13.9021 0.0998921 14.7832 0.290005 15.6321L4.19331 14.7579ZM5.25349 14.1341L2.90516 13.3083L1.57815 17.0817L3.92648 17.9076L5.25349 14.1341ZM2.73824 16.7765C2.75237 16.8111 2.76668 16.8456 2.78118 16.8801L6.46741 15.3271C6.45874 15.3065 6.45017 15.2859 6.44173 15.2652L2.73824 16.7765ZM5.35145 19.2121L6.42759 16.9685L2.82101 15.2386L1.74487 17.4822L5.35145 19.2121ZM7.72374 19.7627C6.72288 19.1282 5.87184 18.2771 5.2373 17.2763L1.85902 19.418C2.80948 20.9172 4.08278 22.1905 5.58195 23.141L7.72374 19.7627ZM8.03147 18.5724L5.78789 19.6485L7.5178 23.2551L9.76137 22.179L8.03147 18.5724ZM8.11988 22.2188C8.15435 22.2333 8.18891 22.2476 8.22354 22.2618L9.7348 18.5583C9.71411 18.5498 9.6935 18.5413 9.67296 18.5326L8.11988 22.2188ZM11.6917 22.0948L10.8659 19.7465L7.09244 21.0735L7.91827 23.4218L11.6917 22.0948ZM12 21C11.3939 21 10.8059 20.933 10.2421 20.8067L9.36791 24.71C10.2168 24.9001 11.0979 25 12 25V21ZM13.7579 20.8067C13.1941 20.933 12.6061 21 12 21V25C12.9021 25 13.7832 24.9001 14.6321 24.71L13.7579 20.8067ZM13.1341 19.7465L12.3083 22.0948L16.0817 23.4218L16.9076 21.0735L13.1341 19.7465ZM15.7764 22.2618C15.8111 22.2477 15.8456 22.2333 15.8801 22.2188L14.327 18.5326C14.3065 18.5413 14.2859 18.5498 14.2652 18.5583L15.7764 22.2618ZM18.2121 19.6485L15.9685 18.5724L14.2386 22.179L16.4822 23.2551L18.2121 19.6485ZM18.7627 17.2763C18.1282 18.2771 17.2771 19.1282 16.2763 19.7627L18.418 23.141C19.9172 22.1905 21.1905 20.9172 22.141 19.418L18.7627 17.2763ZM17.5724 16.9685L18.6485 19.2121L22.2551 17.4822L21.179 15.2386L17.5724 16.9685ZM21.2188 16.8801C21.2333 16.8456 21.2477 16.8111 21.2618 16.7764L17.5583 15.2652C17.5498 15.2859 17.5413 15.3065 17.5326 15.327L21.2188 16.8801ZM21.0948 13.3083L18.7465 14.1341L20.0735 17.9076L22.4218 17.0817L21.0948 13.3083ZM20 13C20 13.6061 19.933 14.1941 19.8067 14.7579L23.71 15.6321C23.9001 14.7832 24 13.9021 24 13H20ZM19.8067 11.2421C19.933 11.8059 20 12.3939 20 13H24C24 12.0979 23.9001 11.2168 23.71 10.3679L19.8067 11.2421ZM18.7465 11.8659L21.0948 12.6917L22.4218 8.91827L20.0735 8.09244L18.7465 11.8659ZM21.2618 9.22354C21.2476 9.18891 21.2333 9.15435 21.2188 9.11988L17.5326 10.673C17.5413 10.6935 17.5498 10.7141 17.5583 10.7348L21.2618 9.22354ZM18.6485 6.78789L17.5724 9.03147L21.179 10.7614L22.2551 8.5178L18.6485 6.78789ZM16.2763 6.2373C17.2771 6.87184 18.1282 7.72288 18.7627 8.72374L22.141 6.58195C21.1905 5.08278 19.9172 3.80948 18.418 2.85902L16.2763 6.2373ZM15.9685 7.42759L18.2121 6.35145L16.4822 2.74487L14.2386 3.82101L15.9685 7.42759ZM15.8801 3.78118C15.8456 3.76668 15.8111 3.75237 15.7765 3.73824L14.2652 7.44173C14.2859 7.45017 14.3065 7.45874 14.3271 7.46741L15.8801 3.78118ZM12.3083 3.90516L13.1341 6.25349L16.9076 4.92648L16.0817 2.57815L12.3083 3.90516ZM12 5C12.6061 5 13.1941 5.06704 13.7579 5.19331L14.6321 1.29001C13.7832 1.09989 12.9021 1 12 1V5ZM10.2421 5.19331C10.8059 5.06704 11.3939 5 12 5V1C11.0979 1 10.2168 1.09989 9.36791 1.29001L10.2421 5.19331ZM10.8659 6.25349L11.6917 3.90516L7.91827 2.57815L7.09244 4.92648L10.8659 6.25349ZM8.2235 3.73824C8.18887 3.75237 8.15435 3.76668 8.11993 3.78118L9.6729 7.46741C9.6935 7.45874 9.71415 7.45017 9.73485 7.44173L8.2235 3.73824ZM12 13V9C9.79086 9 8 10.7909 8 13H12ZM12 13H8C8 15.2091 9.79086 17 12 17V13ZM12 13V17C14.2091 17 16 15.2091 16 13H12ZM12 13H16C16 10.7909 14.2091 9 12 9V13Z" fill="#949FBB" mask="url(#path-1-inside-1_367_4385)"/>
</svg>
